<svg version="1.1" viewBox="0.0 0.0 306.5196850393701 306.5196850393701" fill="none" stroke="none" stroke-linecap="square" stroke-miterlimit="10" xmlns:xlink="http://www.w3.org/1999/xlink" xmlns="http://www.w3.org/2000/svg"><clipPath id="p.0"><path d="m0 0l306.51968 0l0 306.51968l-306.51968 0l0 -306.51968z" clip-rule="nonzero"/></clipPath><g clip-path="url(#p.0)"><path fill="#000000" fill-opacity="0.0" d="m0 0l306.51968 0l0 306.51968l-306.51968 0z" fill-rule="evenodd"/><path fill="#93c47d" d="m1.7637795 52.557446l0 0c0 -28.052567 22.7411 -50.793667 50.793667 -50.793667l203.16856 0l0 0c13.471313 0 26.3909 5.35146 35.916565 14.87712c9.525635 9.525661 14.877106 22.445229 14.877106 35.916546l0 203.16856c0 28.052582 -22.741089 50.79367 -50.79367 50.79367l-203.16856 0c-28.052567 0 -50.793667 -22.741089 -50.793667 -50.79367z" fill-rule="evenodd"/><path stroke="#000000" stroke-width="1.0" stroke-linejoin="round" stroke-linecap="butt" d="m1.7637795 52.557446l0 0c0 -28.052567 22.7411 -50.793667 50.793667 -50.793667l203.16856 0l0 0c13.471313 0 26.3909 5.35146 35.916565 14.87712c9.525635 9.525661 14.877106 22.445229 14.877106 35.916546l0 203.16856c0 28.052582 -22.741089 50.79367 -50.79367 50.79367l-203.16856 0c-28.052567 0 -50.793667 -22.741089 -50.793667 -50.79367z" fill-rule="evenodd"/><path fill="#000000" fill-opacity="0.0" d="m102.38118 18.016476l103.52756 0l0 172.7874l-103.52756 0z" fill-rule="evenodd"/><path fill="#000000" d="m201.30305 64.7571l0 2.28125q-4.453125 0.8125 -6.734375 2.84375q-3.28125 3.03125 -5.828125 9.28125l-29.25 71.37501l-2.28125 0l-31.421875 -72.29688q-2.40625 -5.5625 -3.390625 -6.8125q-1.546875 -1.90625 -3.8125 -2.984375q-2.25 -1.09375 -6.09375 -1.40625l0 -2.28125l34.265625 0l0 2.28125q-5.8125 0.5625 -7.546875 1.984375q-1.734375 1.421875 -1.734375 3.65625q0 3.078125 2.84375 9.640625l21.34375 49.171883l19.78125 -48.546883q2.90625 -7.1875 2.90625 -9.96875q0 -1.78125 -1.796875 -3.421875q-1.78125 -1.640625 -6.046875 -2.328125q-0.3125 -0.0625 -1.0625 -0.1875l0 -2.28125l25.859375 0z" fill-rule="nonzero"/><path fill="#000000" fill-opacity="0.0" d="m27.857893 173.52914l252.56694 0l0 77.44882l-252.56694 0z" fill-rule="evenodd"/><path fill="#000000" d="m56.86401 206.49977q4.875 0 7.828129 3.703125q2.515625 3.171875 2.515625 7.265625q0 2.890625 -1.390625 5.84375q-1.375 2.953125 -3.8125038 4.453125q-2.421875 1.5 -5.390625 1.5q-4.859375 0 -7.71875 -3.875q-2.40625 -3.25 -2.40625 -7.3125q0 -2.953125 1.453125 -5.859375q1.46875 -2.921875 3.859375 -4.3125q2.390625 -1.40625 5.0625 -1.40625zm-0.71875 1.53125q-1.25 0 -2.5 0.734375q-1.25 0.734375 -2.03125 2.59375q-0.765625 1.84375 -0.765625 4.75q0 4.6875 1.859375 8.09375q1.859375 3.390625 4.90625 3.390625q2.28125 0 3.75 -1.875q1.484375 -1.875 1.484375 -6.4375q0 -5.71875 -2.46875 -9.0q-1.65625 -2.25 -4.234375 -2.25zm32.45313 12.421875q-0.859375 4.234375 -3.390625 6.53125q-2.53125 2.28125 -5.609375 2.28125q-3.65625 0 -6.375 -3.0625q-2.71875 -3.078125 -2.71875 -8.3125q0 -5.0625 3.015625 -8.21875q3.015625 -3.171875 7.234375 -3.171875q3.15625 0 5.1875 1.6875q2.046875 1.671875 2.046875 3.46875q0 0.890625 -0.578125 1.453125q-0.5625 0.546875 -1.59375 0.546875q-1.390625 0 -2.09375 -0.890625q-0.390625 -0.5 -0.53125 -1.875q-0.125 -1.390625 -0.9375 -2.109375q-0.828125 -0.703125 -2.28125 -0.703125q-2.34375 0 -3.765625 1.734375q-1.90625 2.296875 -1.90625 6.0625q0 3.84375 1.890625 6.796875q1.890625 2.9375 5.09375 2.9375q2.296875 0 4.125 -1.578125q1.296875 -1.078125 2.515625 -3.90625l0.671875 0.328125zm15.2421875 5.0625q-3.3125 2.546875 -4.15625 2.953125q-1.265625 0.59375 -2.6875 0.59375q-2.234375 0 -3.671875 -1.53125q-1.4375 -1.53125 -1.4375 -4.015625q0 -1.5625 0.703125 -2.71875q0.953125 -1.59375 3.328125 -3.0q2.390625 -1.40625 7.921875 -3.421875l0 -0.84375q0 -3.203125 -1.03125 -4.390625q-1.015625 -1.203125 -2.953125 -1.203125q-1.484375 0 -2.34375 0.796875q-0.890625 0.796875 -0.890625 1.828125l0.046875 1.359375q0 1.078125 -0.5625 1.671875q-0.546875 0.578125 -1.4375 0.578125q-0.859375 0 -1.421875 -0.609375q-0.546875 -0.609375 -0.546875 -1.671875q0 -2.015625 2.0625 -3.703125q2.0625 -1.6875 5.796875 -1.6875q2.859375 0 4.6875 0.96875q1.375 0.71875 2.03125 2.265625q0.421875 1.015625 0.421875 4.125l0 7.296875q0 3.0625 0.109375 3.765625q0.125 0.6875 0.390625 0.921875q0.28125 0.234375 0.625 0.234375q0.375 0 0.65625 -0.171875q0.5 -0.296875 1.90625 -1.703125l0 1.3125q-2.625 3.515625 -5.015625 3.515625q-1.15625 0 -1.84375 -0.796875q-0.671875 -0.796875 -0.6875 -2.71875zm0 -1.53125l0 -8.171875q-3.546875 1.40625 -4.578125 1.984375q-1.84375 1.03125 -2.640625 2.15625q-0.796875 1.125 -0.796875 2.46875q0 1.6875 1.0 2.796875q1.015625 1.109375 2.328125 1.109375q1.78125 0 4.6875 -2.34375zm15.0234375 -13.140625q3.109375 -4.34375 6.71875 -4.34375q3.3125 0 5.765625 2.828125q2.46875 2.828125 2.46875 7.71875q0 5.71875 -3.796875 9.21875q-3.265625 3.0 -7.265625 3.0q-1.875 0 -3.8125 -0.671875q-1.9375 -0.6875 -3.953125 -2.046875l0 -22.25q0 -3.65625 -0.171875 -4.5q-0.171875 -0.84375 -0.546875 -1.140625q-0.375 -0.3125 -0.9375 -0.3125q-0.65625 0 -1.640625 0.375l-0.34375 -0.8125l6.453125 -2.625l1.0625 0l0 15.5625zm0 1.5l0 12.84375q1.1875 1.171875 2.46875 1.765625q1.28125 0.59375 2.609375 0.59375q2.140625 0 3.96875 -2.34375q1.84375 -2.34375 1.84375 -6.8125q0 -4.125 -1.84375 -6.34375q-1.828125 -2.21875 -4.171875 -2.21875q-1.25 0 -2.484375 0.640625q-0.9375 0.46875 -2.390625 1.875zm36.9375 -5.203125l0 13.0q0 3.734375 0.171875 4.5625q0.171875 0.828125 0.5625 1.15625q0.390625 0.328125 0.90625 0.328125q0.71875 0 1.640625 -0.390625l0.328125 0.8125l-6.421875 2.65625l-1.0625 0l0 -4.546875q-2.765625 3.0 -4.21875 3.78125q-1.453125 0.765625 -3.0625 0.765625q-1.8125 0 -3.140625 -1.046875q-1.3125 -1.046875 -1.828125 -2.6875q-0.515625 -1.640625 -0.515625 -4.640625l0 -9.578125q0 -1.53125 -0.328125 -2.109375q-0.328125 -0.59375 -0.984375 -0.90625q-0.640625 -0.3125 -2.328125 -0.296875l0 -0.859375l7.53125 0l0 14.359375q0 3.0 1.03125 3.9375q1.046875 0.9375 2.53125 0.9375q1.0 0 2.28125 -0.625q1.28125 -0.640625 3.03125 -2.421875l0 -12.15625q0 -1.828125 -0.671875 -2.46875q-0.65625 -0.65625 -2.765625 -0.703125l0 -0.859375l7.3125 0zm12.5625 -11.859375l0 28.46875q0 2.015625 0.28125 2.671875q0.296875 0.65625 0.90625 1.0q0.609375 0.34375 2.28125 0.34375l0 0.84375l-10.53125 0l0 -0.84375q1.484375 0 2.015625 -0.296875q0.546875 -0.3125 0.84375 -1.015625q0.3125 -0.703125 0.3125 -2.703125l0 -19.5q0 -3.625 -0.171875 -4.453125q-0.15625 -0.84375 -0.53125 -1.140625q-0.359375 -0.3125 -0.921875 -0.3125q-0.609375 0 -1.546875 0.375l-0.390625 -0.8125l6.390625 -2.625l1.0625 0zm18.117188 30.234375q-3.3125 2.546875 -4.15625 2.953125q-1.265625 0.59375 -2.6875 0.59375q-2.234375 0 -3.671875 -1.53125q-1.4375 -1.53125 -1.4375 -4.015625q0 -1.5625 0.703125 -2.71875q0.953125 -1.59375 3.328125 -3.0q2.390625 -1.40625 7.921875 -3.421875l0 -0.84375q0 -3.203125 -1.03125 -4.390625q-1.015625 -1.203125 -2.953125 -1.203125q-1.484375 0 -2.34375 0.796875q-0.890625 0.796875 -0.890625 1.828125l0.046875 1.359375q0 1.078125 -0.5625 1.671875q-0.546875 0.578125 -1.4375 0.578125q-0.859375 0 -1.421875 -0.609375q-0.546875 -0.609375 -0.546875 -1.671875q0 -2.015625 2.0625 -3.703125q2.0625 -1.6875 5.796875 -1.6875q2.859375 0 4.6875 0.96875q1.375 0.71875 2.03125 2.265625q0.421875 1.015625 0.421875 4.125l0 7.296875q0 3.0625 0.109375 3.765625q0.125 0.6875 0.390625 0.921875q0.28125 0.234375 0.625 0.234375q0.375 0 0.65625 -0.171875q0.5 -0.296875 1.90625 -1.703125l0 1.3125q-2.625 3.515625 -5.015625 3.515625q-1.15625 0 -1.84375 -0.796875q-0.671875 -0.796875 -0.6875 -2.71875zm0 -1.53125l0 -8.171875q-3.546875 1.40625 -4.578125 1.984375q-1.84375 1.03125 -2.640625 2.15625q-0.796875 1.125 -0.796875 2.46875q0 1.6875 1.0 2.796875q1.015625 1.109375 2.328125 1.109375q1.78125 0 4.6875 -2.34375zm15.4140625 -17.484375l0 4.828125q2.703125 -4.828125 5.53125 -4.828125q1.296875 0 2.140625 0.796875q0.84375 0.78125 0.84375 1.8125q0 0.90625 -0.609375 1.546875q-0.609375 0.625 -1.453125 0.625q-0.828125 0 -1.84375 -0.796875q-1.015625 -0.8125 -1.515625 -0.8125q-0.421875 0 -0.90625 0.46875q-1.0625 0.953125 -2.1875 3.15625l0 10.296875q0 1.78125 0.453125 2.6875q0.296875 0.640625 1.0625 1.0625q0.78125 0.421875 2.234375 0.421875l0 0.84375l-10.984375 0l0 -0.84375q1.640625 0 2.4375 -0.515625q0.578125 -0.375 0.8125 -1.203125q0.125 -0.390625 0.125 -2.265625l0 -8.328125q0 -3.75 -0.15625 -4.453125q-0.15625 -0.71875 -0.5625 -1.046875q-0.40625 -0.328125 -1.015625 -0.328125q-0.734375 0 -1.640625 0.34375l-0.234375 -0.84375l6.484375 -2.625l0.984375 0zm15.171875 -11.21875q0.984375 0 1.671875 0.6875q0.6875 0.6875 0.6875 1.671875q0 0.984375 -0.6875 1.6875q-0.6875 0.703125 -1.671875 0.703125q-0.984375 0 -1.6875 -0.703125q-0.703125 -0.703125 -0.703125 -1.6875q0 -0.984375 0.6875 -1.671875q0.6875 -0.6875 1.703125 -0.6875zm1.9375 11.21875l0 17.25q0 2.015625 0.296875 2.6875q0.296875 0.671875 0.859375 1.0q0.578125 0.328125 2.109375 0.328125l0 0.84375l-10.4375 0l0 -0.84375q1.578125 0 2.109375 -0.296875q0.546875 -0.3125 0.859375 -1.015625q0.3125 -0.703125 0.3125 -2.703125l0 -8.265625q0 -3.5 -0.203125 -4.53125q-0.171875 -0.75 -0.53125 -1.03125q-0.34375 -0.296875 -0.953125 -0.296875q-0.65625 0 -1.59375 0.34375l-0.328125 -0.84375l6.46875 -2.625l1.03125 0zm9.5390625 8.71875q-0.015625 4.78125 2.328125 7.5q2.34375 2.71875 5.5 2.71875q2.109375 0 3.671875 -1.15625q1.5625 -1.15625 2.609375 -3.96875l0.734375 0.46875q-0.5 3.203125 -2.875 5.84375q-2.359375 2.640625 -5.921875 2.640625q-3.859375 0 -6.625 -3.015625q-2.75 -3.015625 -2.75 -8.09375q0 -5.515625 2.828125 -8.59375q2.828125 -3.078125 7.09375 -3.078125q3.609375 0 5.921875 2.375q2.328125 2.375 2.328125 6.359375l-14.84375 0zm0 -1.359375l9.9375 0q-0.109375 -2.0625 -0.484375 -2.90625q-0.59375 -1.3125 -1.75 -2.0625q-1.15625 -0.75 -2.421875 -0.75q-1.953125 0 -3.484375 1.515625q-1.53125 1.515625 -1.796875 4.203125zm31.570312 -7.359375l0 7.3125l-0.765625 0q-0.890625 -3.4375 -2.296875 -4.671875q-1.390625 -1.25 -3.546875 -1.25q-1.640625 0 -2.65625 0.875q-1.0 0.859375 -1.0 1.90625q0 1.3125 0.75 2.25q0.734375 0.96875 2.953125 2.046875l3.421875 1.65625q4.765625 2.328125 4.765625 6.125q0 2.921875 -2.21875 4.71875q-2.21875 1.796875 -4.953125 1.796875q-1.96875 0 -4.5 -0.703125q-0.78125 -0.234375 -1.265625 -0.234375q-0.546875 0 -0.84375 0.609375l-0.78125 0l0 -7.671875l0.78125 0q0.65625 3.28125 2.5 4.953125q1.859375 1.65625 4.15625 1.65625q1.609375 0 2.625 -0.9375q1.03125 -0.953125 1.03125 -2.296875q0 -1.609375 -1.140625 -2.703125q-1.140625 -1.109375 -4.546875 -2.796875q-3.390625 -1.6875 -4.4375 -3.046875q-1.0625 -1.34375 -1.0625 -3.375q0 -2.65625 1.8125 -4.4375q1.828125 -1.78125 4.703125 -1.78125q1.265625 0 3.078125 0.546875q1.1875 0.34375 1.59375 0.34375q0.375 0 0.578125 -0.15625q0.21875 -0.171875 0.5 -0.734375l0.765625 0z" fill-rule="nonzero"/></g></svg>